<svg width="32" height="32" viewBox="0 0 32 32" fill="none" xmlns="http://www.w3.org/2000/svg">
<path d="M7 17L27 17C27.2652 17 27.5196 16.8946 27.7071 16.7071C27.8946 16.5196 28 16.2652 28 16C28 15.7348 27.8946 15.4804 27.7071 15.2929C27.5196 15.1054 27.2652 15 27 15L7 15C6.73478 15 6.48043 15.1054 6.29289 15.2929C6.10536 15.4804 6 15.7348 6 16C6 16.2652 6.10536 16.5196 6.29289 16.7071C6.48043 16.8946 6.73478 17 7 17Z" fill="#001E6B"/>
<mask id="path-2-inside-1_991_269" fill="white">
<path d="M7.41396 15.9997L15.708 7.70771C15.8957 7.51994 16.0012 7.26526 16.0012 6.99971C16.0012 6.73416 15.8957 6.47949 15.708 6.29171C15.5202 6.10394 15.2655 5.99845 15 5.99845C14.7344 5.99845 14.4797 6.10394 14.292 6.29171L5.29196 15.2917C5.19883 15.3846 5.12494 15.495 5.07453 15.6164C5.02412 15.7379 4.99817 15.8682 4.99817 15.9997C4.99817 16.1312 5.02412 16.2615 5.07453 16.383C5.12494 16.5045 5.19883 16.6148 5.29196 16.7077L14.292 25.7077C14.4797 25.8955 14.7344 26.001 15 26.001C15.2655 26.001 15.5202 25.8955 15.708 25.7077C15.8957 25.5199 16.0012 25.2653 16.0012 24.9997C16.0012 24.7342 15.8957 24.4795 15.708 24.2917L7.41396 15.9997Z"/>
</mask>
<path d="M7.41396 15.9997L15.708 7.70771C15.8957 7.51994 16.0012 7.26526 16.0012 6.99971C16.0012 6.73416 15.8957 6.47949 15.708 6.29171C15.5202 6.10394 15.2655 5.99845 15 5.99845C14.7344 5.99845 14.4797 6.10394 14.292 6.29171L5.29196 15.2917C5.19883 15.3846 5.12494 15.495 5.07453 15.6164C5.02412 15.7379 4.99817 15.8682 4.99817 15.9997C4.99817 16.1312 5.02412 16.2615 5.07453 16.383C5.12494 16.5045 5.19883 16.6148 5.29196 16.7077L14.292 25.7077C14.4797 25.8955 14.7344 26.001 15 26.001C15.2655 26.001 15.5202 25.8955 15.708 25.7077C15.8957 25.5199 16.0012 25.2653 16.0012 24.9997C16.0012 24.7342 15.8957 24.4795 15.708 24.2917L7.41396 15.9997Z" fill="#001E6B"/>
<path d="M7.41396 15.9997L5.29289 18.1213L3.1708 15.9997L5.29289 13.8781L7.41396 15.9997ZM15.708 7.70771L17.8293 9.82903L17.829 9.82929L15.708 7.70771ZM14.292 6.29171L12.1706 4.17039L14.292 6.29171ZM5.29196 15.2917L7.41328 17.413L7.41059 17.4157L5.29196 15.2917ZM4.99817 15.9997H7.99817H4.99817ZM5.29196 16.7077L7.4106 14.5837L7.41328 14.5864L5.29196 16.7077ZM15 26.001V29.001V26.001ZM16.0012 24.9997H19.0012H16.0012ZM15.708 24.2917L17.829 22.1701L17.8293 22.1704L15.708 24.2917ZM7.41396 15.9997L5.29289 13.8781L13.5869 5.58614L15.708 7.70771L17.829 9.82929L9.53502 18.1213L7.41396 15.9997ZM15.708 7.70771L13.5866 5.58639C13.2118 5.96123 13.0012 6.46962 13.0012 6.99971H16.0012H19.0012C19.0012 8.06091 18.5797 9.07865 17.8293 9.82903L15.708 7.70771ZM16.0012 6.99971H13.0012C13.0012 7.52981 13.2118 8.03819 13.5866 8.41303L15.708 6.29171L17.8293 4.17039C18.5797 4.92078 19.0012 5.93852 19.0012 6.99971H16.0012ZM15.708 6.29171L13.5866 8.41303C13.9615 8.78787 14.4699 8.99845 15 8.99845V5.99845L15 2.99845C16.0612 2.99845 17.0789 3.42001 17.8293 4.17039L15.708 6.29171ZM15 5.99845V8.99845C15.53 8.99845 16.0384 8.78787 16.4133 8.41303L14.292 6.29171L12.1706 4.17039C12.921 3.42001 13.9388 2.99845 15 2.99845L15 5.99845ZM14.292 6.29171L16.4133 8.41303L7.41328 17.413L5.29196 15.2917L3.17064 13.1704L12.1706 4.17039L14.292 6.29171ZM5.29196 15.2917L7.41059 17.4157C7.59685 17.2299 7.74462 17.0092 7.84544 16.7662L5.07453 15.6164L2.30362 14.4666C2.50527 13.9807 2.80081 13.5393 3.17332 13.1677L5.29196 15.2917ZM5.07453 15.6164L7.84544 16.7662C7.94627 16.5233 7.99817 16.2628 7.99817 15.9997H4.99817H1.99817C1.99817 15.4736 2.10197 14.9526 2.30362 14.4666L5.07453 15.6164ZM4.99817 15.9997H7.99817C7.99817 15.7366 7.94627 15.4762 7.84544 15.2332L5.07453 16.383L2.30362 17.5328C2.10197 17.0468 1.99817 16.5259 1.99817 15.9997H4.99817ZM5.07453 16.383L7.84544 15.2332C7.74462 14.9902 7.59685 14.7695 7.41059 14.5837L5.29196 16.7077L3.17332 18.8317C2.80081 18.4601 2.50527 18.0187 2.30362 17.5328L5.07453 16.383ZM5.29196 16.7077L7.41328 14.5864L16.4133 23.5864L14.292 25.7077L12.1706 27.829L3.17064 18.829L5.29196 16.7077ZM14.292 25.7077L16.4133 23.5864C16.0384 23.2116 15.5301 23.001 15 23.001V26.001V29.001C13.9388 29.001 12.921 28.5794 12.1706 27.829L14.292 25.7077ZM15 26.001V23.001C14.4699 23.001 13.9615 23.2116 13.5866 23.5864L15.708 25.7077L17.8293 27.829C17.0789 28.5794 16.0612 29.001 15 29.001V26.001ZM15.708 25.7077L13.5866 23.5864C13.2118 23.9612 13.0012 24.4696 13.0012 24.9997H16.0012H19.0012C19.0012 26.0609 18.5797 27.0786 17.8293 27.829L15.708 25.7077ZM16.0012 24.9997H13.0012C13.0012 25.5298 13.2118 26.0382 13.5866 26.413L15.708 24.2917L17.8293 22.1704C18.5797 22.9208 19.0012 23.9385 19.0012 24.9997H16.0012ZM15.708 24.2917L13.5869 26.4133L5.29289 18.1213L7.41396 15.9997L9.53502 13.8781L17.829 22.1701L15.708 24.2917Z" fill="#001E6B" mask="url(#path-2-inside-1_991_269)"/>
</svg>
