<svg width="48" height="48" viewBox="0 0 48 48" fill="none" xmlns="http://www.w3.org/2000/svg">
<path d="M6 9V38.9857" stroke="#01C4B3" stroke-width="2" stroke-linecap="round"/>
<path d="M42 18V39" stroke="#01C4B3" stroke-width="2" stroke-linecap="round" stroke-linejoin="round"/>
<path d="M12 3H27" stroke="#01C4B3" stroke-width="2" stroke-linecap="round" stroke-linejoin="round"/>
<path d="M12 45H36" stroke="#01C4B3" stroke-width="2" stroke-linecap="round"/>
<path d="M42 39C42.0164 41.9966 39 45 36 45" stroke="#01C4B3" stroke-width="2" stroke-linecap="round" stroke-linejoin="round"/>
<path d="M6 39C6 42 9 45 12 45" stroke="#01C4B3" stroke-width="2" stroke-linecap="round" stroke-linejoin="round"/>
<path d="M6 8.99609C6 6.00045 9 3.06726 12 3.00045" stroke="#01C4B3" stroke-width="2" stroke-linecap="round" stroke-linejoin="round"/>
<path d="M41.9836 18.0135L27 3" stroke="#01C4B3" stroke-width="2" stroke-linecap="round" stroke-linejoin="round"/>
<path d="M27 12C27.0092 14.9837 30.0121 18 33 18" stroke="#01C4B3" stroke-width="2" stroke-linecap="round" stroke-linejoin="round"/>
<path d="M27 12V3" stroke="#01C4B3" stroke-width="2" stroke-linecap="round" stroke-linejoin="round"/>
<path d="M33 18H42" stroke="#01C4B3" stroke-width="2" stroke-linecap="round" stroke-linejoin="round"/>
<path d="M12 36H30" stroke="#01C4B3" stroke-width="2" stroke-linecap="round" stroke-linejoin="round"/>
<path d="M12 30H30" stroke="#01C4B3" stroke-width="2" stroke-linecap="round" stroke-linejoin="round"/>
<path d="M15 27V39" stroke="#01C4B3" stroke-width="2" stroke-linecap="round" stroke-linejoin="round"/>
<path d="M21 27V39" stroke="#01C4B3" stroke-width="2" stroke-linecap="round" stroke-linejoin="round"/>
<path d="M27 27V39" stroke="#01C4B3" stroke-width="2" stroke-linecap="round" stroke-linejoin="round"/>
</svg>
