<svg width="32" height="32" viewBox="0 0 32 32" fill="none" xmlns="http://www.w3.org/2000/svg">
<path d="M15.9998 20.7697L11.2812 16.0523L12.2252 15.0923L15.3332 18.2003V6.66699H16.6665V18.2003L19.7732 15.0937L20.7185 16.0523L15.9998 20.7697ZM8.82117 25.3337C8.20695 25.3337 7.6945 25.1283 7.28384 24.7177C6.87317 24.307 6.66739 23.7941 6.6665 23.179V19.9483H7.99984V23.179C7.99984 23.3843 8.08517 23.5728 8.25584 23.7443C8.4265 23.9159 8.6145 24.0012 8.81984 24.0003H23.1798C23.3843 24.0003 23.5723 23.915 23.7438 23.7443C23.9154 23.5737 24.0007 23.3852 23.9998 23.179V19.9483H25.3332V23.179C25.3332 23.7932 25.1278 24.3057 24.7172 24.7163C24.3065 25.127 23.7936 25.3328 23.1785 25.3337H8.82117Z" fill="white"/>
</svg>
