<svg xmlns="http://www.w3.org/2000/svg" xmlns:xlink="http://www.w3.org/1999/xlink" width="437" zoomAndPan="magnify" viewBox="0 0 327.75 103.5" height="138" preserveAspectRatio="xMidYMid meet" version="1.0"><defs><g/><clipPath id="15ea196e73"><path d="M 155 56 L 326.835938 56 L 326.835938 103.003906 L 155 103.003906 Z M 155 56 " clip-rule="nonzero"/></clipPath><clipPath id="78add34365"><path d="M 308 78 L 326.835938 78 L 326.835938 103 L 308 103 Z M 308 78 " clip-rule="nonzero"/></clipPath><clipPath id="8800514b00"><path d="M 308 0 L 326.835938 0 L 326.835938 24 L 308 24 Z M 308 0 " clip-rule="nonzero"/></clipPath><clipPath id="b035e1608f"><path d="M 0.664062 8 L 130 8 L 130 15 L 0.664062 15 Z M 0.664062 8 " clip-rule="nonzero"/></clipPath><clipPath id="218a7d69e9"><path d="M 0.664062 87 L 129 87 L 129 94 L 0.664062 94 Z M 0.664062 87 " clip-rule="nonzero"/></clipPath><clipPath id="1165a316d0"><path d="M 90 0 L 226 0 L 226 103.003906 L 90 103.003906 Z M 90 0 " clip-rule="nonzero"/></clipPath><clipPath id="fa8d1fcc21"><path d="M 89 0 L 226 0 L 226 103.003906 L 89 103.003906 Z M 89 0 " clip-rule="nonzero"/></clipPath></defs><g fill="#193479" fill-opacity="1"><g transform="translate(11.80962, 69.720693)"><g><path d="M 1.0625 -14.65625 C 1.0625 -16.65625 1.410156 -18.570312 2.109375 -20.40625 C 2.816406 -22.25 3.847656 -23.867188 5.203125 -25.265625 C 6.566406 -26.660156 8.25 -27.773438 10.25 -28.609375 C 12.257812 -29.441406 14.5625 -29.859375 17.15625 -29.859375 C 20.726562 -29.859375 23.710938 -29.113281 26.109375 -27.625 C 28.503906 -26.144531 30.296875 -24.234375 31.484375 -21.890625 L 21.171875 -18.78125 C 20.171875 -20.226562 18.816406 -20.953125 17.109375 -20.953125 C 15.660156 -20.953125 14.429688 -20.398438 13.421875 -19.296875 C 12.421875 -18.203125 11.921875 -16.65625 11.921875 -14.65625 C 11.921875 -12.644531 12.421875 -11.09375 13.421875 -10 C 14.429688 -8.90625 15.660156 -8.359375 17.109375 -8.359375 C 18.816406 -8.359375 20.171875 -9.082031 21.171875 -10.53125 L 31.484375 -7.40625 C 30.296875 -5.070312 28.503906 -3.160156 26.109375 -1.671875 C 23.710938 -0.179688 20.726562 0.5625 17.15625 0.5625 C 14.5625 0.5625 12.257812 0.144531 10.25 -0.6875 C 8.25 -1.53125 6.566406 -2.644531 5.203125 -4.03125 C 3.847656 -5.425781 2.816406 -7.039062 2.109375 -8.875 C 1.410156 -10.71875 1.0625 -12.644531 1.0625 -14.65625 Z M 1.0625 -14.65625 "/></g></g></g><g fill="#193479" fill-opacity="1"><g transform="translate(43.906062, 69.720693)"><g><path d="M 11.3125 0.5625 C 9.863281 0.5625 8.503906 0.320312 7.234375 -0.15625 C 5.972656 -0.644531 4.890625 -1.304688 3.984375 -2.140625 C 3.078125 -2.984375 2.363281 -3.976562 1.84375 -5.125 C 1.320312 -6.28125 1.0625 -7.523438 1.0625 -8.859375 C 1.0625 -10.347656 1.375 -11.703125 2 -12.921875 C 2.632812 -14.148438 3.507812 -15.207031 4.625 -16.09375 C 5.738281 -16.988281 7.066406 -17.675781 8.609375 -18.15625 C 10.148438 -18.644531 11.847656 -18.890625 13.703125 -18.890625 C 16.078125 -18.890625 18.046875 -18.519531 19.609375 -17.78125 L 19.609375 -18.671875 C 19.609375 -20.046875 19.207031 -21.066406 18.40625 -21.734375 C 17.613281 -22.398438 16.328125 -22.734375 14.546875 -22.734375 C 12.867188 -22.734375 11.320312 -22.460938 9.90625 -21.921875 C 8.5 -21.390625 7.015625 -20.601562 5.453125 -19.5625 L 2.390625 -26.125 C 6.253906 -28.613281 10.65625 -29.859375 15.59375 -29.859375 C 20.28125 -29.859375 23.882812 -28.816406 26.40625 -26.734375 C 28.9375 -24.660156 30.203125 -21.546875 30.203125 -17.390625 L 30.203125 -11.703125 C 30.203125 -10.703125 30.382812 -10.003906 30.75 -9.609375 C 31.125 -9.222656 31.796875 -8.992188 32.765625 -8.921875 L 32.765625 0 C 31.796875 0.1875 30.882812 0.328125 30.03125 0.421875 C 29.175781 0.515625 28.414062 0.5625 27.75 0.5625 C 25.851562 0.5625 24.410156 0.21875 23.421875 -0.46875 C 22.441406 -1.15625 21.800781 -2.171875 21.5 -3.515625 L 21.28125 -4.5625 C 19.976562 -2.894531 18.472656 -1.625 16.765625 -0.75 C 15.054688 0.125 13.238281 0.5625 11.3125 0.5625 Z M 14.484375 -7.015625 C 15.117188 -7.015625 15.769531 -7.117188 16.4375 -7.328125 C 17.101562 -7.535156 17.695312 -7.804688 18.21875 -8.140625 C 18.625 -8.429688 18.957031 -8.753906 19.21875 -9.109375 C 19.476562 -9.460938 19.609375 -9.828125 19.609375 -10.203125 L 19.609375 -12.375 C 18.984375 -12.59375 18.296875 -12.773438 17.546875 -12.921875 C 16.804688 -13.078125 16.140625 -13.15625 15.546875 -13.15625 C 14.242188 -13.15625 13.164062 -12.835938 12.3125 -12.203125 C 11.457031 -11.566406 11.03125 -10.769531 11.03125 -9.8125 C 11.03125 -8.988281 11.351562 -8.316406 12 -7.796875 C 12.65625 -7.273438 13.484375 -7.015625 14.484375 -7.015625 Z M 14.484375 -7.015625 "/></g></g></g><g fill="#193479" fill-opacity="1"><g transform="translate(77.562751, 69.720693)"><g><path d="M 22.40625 0.5625 C 20.28125 0.5625 18.4375 0.144531 16.875 -0.6875 C 15.320312 -1.53125 14.117188 -2.75 13.265625 -4.34375 L 13.265625 11.875 L 2.671875 11.875 L 2.671875 -29.3125 L 11.875 -29.3125 L 11.875 -24.90625 C 12.90625 -26.5 14.179688 -27.722656 15.703125 -28.578125 C 17.234375 -29.429688 19.113281 -29.859375 21.34375 -29.859375 C 23.269531 -29.859375 25.066406 -29.476562 26.734375 -28.71875 C 28.410156 -27.957031 29.84375 -26.90625 31.03125 -25.5625 C 32.21875 -24.226562 33.15625 -22.632812 33.84375 -20.78125 C 34.53125 -18.925781 34.875 -16.921875 34.875 -14.765625 C 34.875 -12.578125 34.554688 -10.539062 33.921875 -8.65625 C 33.296875 -6.78125 32.425781 -5.15625 31.3125 -3.78125 C 30.195312 -2.414062 28.878906 -1.347656 27.359375 -0.578125 C 25.835938 0.179688 24.1875 0.5625 22.40625 0.5625 Z M 18.71875 -8.359375 C 19.5 -8.359375 20.210938 -8.523438 20.859375 -8.859375 C 21.515625 -9.191406 22.070312 -9.65625 22.53125 -10.25 C 23 -10.84375 23.375 -11.53125 23.65625 -12.3125 C 23.9375 -13.09375 24.078125 -13.929688 24.078125 -14.828125 C 24.078125 -16.679688 23.546875 -18.164062 22.484375 -19.28125 C 21.421875 -20.394531 20.019531 -20.953125 18.28125 -20.953125 C 16.3125 -20.953125 14.640625 -19.945312 13.265625 -17.9375 L 13.265625 -12.875 C 13.785156 -11.570312 14.546875 -10.492188 15.546875 -9.640625 C 16.546875 -8.785156 17.601562 -8.359375 18.71875 -8.359375 Z M 18.71875 -8.359375 "/></g></g></g><g clip-path="url(#15ea196e73)"><path stroke-linecap="butt" transform="matrix(0.746383, 0.00404159, -0.00404159, 0.746383, 188.792805, 87.193847)" fill="none" stroke-linejoin="miter" d="M 0.000946814 4.000406 L 162.676034 3.998778 " stroke="#193479" stroke-width="8" stroke-opacity="1" stroke-miterlimit="4"/></g><path fill="#193479" d="M 311.738281 81.886719 L 323.632812 90.910156 L 311.640625 99.800781 Z M 311.738281 81.886719 " fill-opacity="1" fill-rule="nonzero"/><g clip-path="url(#78add34365)"><path stroke-linecap="round" transform="matrix(0.746383, 0.00404159, -0.00404159, 0.746383, 188.792805, 87.193847)" fill="none" stroke-linejoin="round" d="M 164.678311 -8.002176 L 180.67953 4.000728 L 164.677436 15.998986 Z M 164.678311 -8.002176 " stroke="#193479" stroke-width="8" stroke-opacity="1" stroke-miterlimit="4"/></g><path stroke-linecap="butt" transform="matrix(0.746394, 0, 0, 0.746394, 188.776638, 8.956733)" fill="none" stroke-linejoin="miter" d="M 0.000946138 3.998789 L 162.673658 3.998789 " stroke="#193479" stroke-width="8" stroke-opacity="1" stroke-miterlimit="4"/><path fill="#193479" d="M 311.691406 2.984375 L 323.632812 11.941406 L 311.691406 20.898438 Z M 311.691406 2.984375 " fill-opacity="1" fill-rule="nonzero"/><g clip-path="url(#8800514b00)"><path stroke-linecap="round" transform="matrix(0.746394, 0, 0, 0.746394, 188.776638, 8.956733)" fill="none" stroke-linejoin="round" d="M 164.678087 -8.001614 L 180.67688 3.998789 L 164.678087 15.999192 Z M 164.678087 -8.001614 " stroke="#193479" stroke-width="8" stroke-opacity="1" stroke-miterlimit="4"/></g><g clip-path="url(#b035e1608f)"><path stroke-linecap="butt" transform="matrix(0.746394, -0.000000000000001574, 0.000000000000001574, 0.746394, 3.591253, 8.210339)" fill="none" stroke-linejoin="miter" d="M -0.00188827 3.999191 L 164.366476 3.999191 " stroke="#193479" stroke-width="8" stroke-opacity="1" stroke-miterlimit="4"/></g><g clip-path="url(#218a7d69e9)"><path stroke-linecap="butt" transform="matrix(0.746394, -0.000000000000001574, 0.000000000000001574, 0.746394, 2.844859, 87.940182)" fill="none" stroke-linejoin="miter" d="M -0.00148573 4.00003 L 164.366879 4.00003 " stroke="#193479" stroke-width="8" stroke-opacity="1" stroke-miterlimit="4"/></g><g clip-path="url(#1165a316d0)"><path stroke-linecap="butt" transform="matrix(0.47406, 0.576517, -0.576517, 0.47406, 126.485157, 8.180427)" fill="none" stroke-linejoin="miter" d="M 0.0020187 4.000623 L 141.531376 3.999967 " stroke="#193479" stroke-width="8" stroke-opacity="1" stroke-miterlimit="4"/></g><g clip-path="url(#fa8d1fcc21)"><path stroke-linecap="butt" transform="matrix(0.481077, -0.570674, 0.570674, 0.481077, 121.14965, 89.746733)" fill="none" stroke-linejoin="miter" d="M 0.000221042 4.001997 L 141.018876 4.000308 " stroke="#193479" stroke-width="8" stroke-opacity="1" stroke-miterlimit="4"/></g><g fill="#193479" fill-opacity="1"><g transform="translate(192.54724, 69.720693)"><g><path d="M 11.3125 0.5625 C 9.863281 0.5625 8.503906 0.320312 7.234375 -0.15625 C 5.972656 -0.644531 4.890625 -1.304688 3.984375 -2.140625 C 3.078125 -2.984375 2.363281 -3.976562 1.84375 -5.125 C 1.320312 -6.28125 1.0625 -7.523438 1.0625 -8.859375 C 1.0625 -10.347656 1.375 -11.703125 2 -12.921875 C 2.632812 -14.148438 3.507812 -15.207031 4.625 -16.09375 C 5.738281 -16.988281 7.066406 -17.675781 8.609375 -18.15625 C 10.148438 -18.644531 11.847656 -18.890625 13.703125 -18.890625 C 16.078125 -18.890625 18.046875 -18.519531 19.609375 -17.78125 L 19.609375 -18.671875 C 19.609375 -20.046875 19.207031 -21.066406 18.40625 -21.734375 C 17.613281 -22.398438 16.328125 -22.734375 14.546875 -22.734375 C 12.867188 -22.734375 11.320312 -22.460938 9.90625 -21.921875 C 8.5 -21.390625 7.015625 -20.601562 5.453125 -19.5625 L 2.390625 -26.125 C 6.253906 -28.613281 10.65625 -29.859375 15.59375 -29.859375 C 20.28125 -29.859375 23.882812 -28.816406 26.40625 -26.734375 C 28.9375 -24.660156 30.203125 -21.546875 30.203125 -17.390625 L 30.203125 -11.703125 C 30.203125 -10.703125 30.382812 -10.003906 30.75 -9.609375 C 31.125 -9.222656 31.796875 -8.992188 32.765625 -8.921875 L 32.765625 0 C 31.796875 0.1875 30.882812 0.328125 30.03125 0.421875 C 29.175781 0.515625 28.414062 0.5625 27.75 0.5625 C 25.851562 0.5625 24.410156 0.21875 23.421875 -0.46875 C 22.441406 -1.15625 21.800781 -2.171875 21.5 -3.515625 L 21.28125 -4.5625 C 19.976562 -2.894531 18.472656 -1.625 16.765625 -0.75 C 15.054688 0.125 13.238281 0.5625 11.3125 0.5625 Z M 14.484375 -7.015625 C 15.117188 -7.015625 15.769531 -7.117188 16.4375 -7.328125 C 17.101562 -7.535156 17.695312 -7.804688 18.21875 -8.140625 C 18.625 -8.429688 18.957031 -8.753906 19.21875 -9.109375 C 19.476562 -9.460938 19.609375 -9.828125 19.609375 -10.203125 L 19.609375 -12.375 C 18.984375 -12.59375 18.296875 -12.773438 17.546875 -12.921875 C 16.804688 -13.078125 16.140625 -13.15625 15.546875 -13.15625 C 14.242188 -13.15625 13.164062 -12.835938 12.3125 -12.203125 C 11.457031 -11.566406 11.03125 -10.769531 11.03125 -9.8125 C 11.03125 -8.988281 11.351562 -8.316406 12 -7.796875 C 12.65625 -7.273438 13.484375 -7.015625 14.484375 -7.015625 Z M 14.484375 -7.015625 "/></g></g></g><g fill="#193479" fill-opacity="1"><g transform="translate(226.203928, 69.720693)"><g><path d="M 22.40625 0.5625 C 20.28125 0.5625 18.4375 0.144531 16.875 -0.6875 C 15.320312 -1.53125 14.117188 -2.75 13.265625 -4.34375 L 13.265625 11.875 L 2.671875 11.875 L 2.671875 -29.3125 L 11.875 -29.3125 L 11.875 -24.90625 C 12.90625 -26.5 14.179688 -27.722656 15.703125 -28.578125 C 17.234375 -29.429688 19.113281 -29.859375 21.34375 -29.859375 C 23.269531 -29.859375 25.066406 -29.476562 26.734375 -28.71875 C 28.410156 -27.957031 29.84375 -26.90625 31.03125 -25.5625 C 32.21875 -24.226562 33.15625 -22.632812 33.84375 -20.78125 C 34.53125 -18.925781 34.875 -16.921875 34.875 -14.765625 C 34.875 -12.578125 34.554688 -10.539062 33.921875 -8.65625 C 33.296875 -6.78125 32.425781 -5.15625 31.3125 -3.78125 C 30.195312 -2.414062 28.878906 -1.347656 27.359375 -0.578125 C 25.835938 0.179688 24.1875 0.5625 22.40625 0.5625 Z M 18.71875 -8.359375 C 19.5 -8.359375 20.210938 -8.523438 20.859375 -8.859375 C 21.515625 -9.191406 22.070312 -9.65625 22.53125 -10.25 C 23 -10.84375 23.375 -11.53125 23.65625 -12.3125 C 23.9375 -13.09375 24.078125 -13.929688 24.078125 -14.828125 C 24.078125 -16.679688 23.546875 -18.164062 22.484375 -19.28125 C 21.421875 -20.394531 20.019531 -20.953125 18.28125 -20.953125 C 16.3125 -20.953125 14.640625 -19.945312 13.265625 -17.9375 L 13.265625 -12.875 C 13.785156 -11.570312 14.546875 -10.492188 15.546875 -9.640625 C 16.546875 -8.785156 17.601562 -8.359375 18.71875 -8.359375 Z M 18.71875 -8.359375 "/></g></g></g><g fill="#193479" fill-opacity="1"><g transform="translate(262.20098, 69.720693)"><g><path d="M 22.40625 0.5625 C 20.28125 0.5625 18.4375 0.144531 16.875 -0.6875 C 15.320312 -1.53125 14.117188 -2.75 13.265625 -4.34375 L 13.265625 11.875 L 2.671875 11.875 L 2.671875 -29.3125 L 11.875 -29.3125 L 11.875 -24.90625 C 12.90625 -26.5 14.179688 -27.722656 15.703125 -28.578125 C 17.234375 -29.429688 19.113281 -29.859375 21.34375 -29.859375 C 23.269531 -29.859375 25.066406 -29.476562 26.734375 -28.71875 C 28.410156 -27.957031 29.84375 -26.90625 31.03125 -25.5625 C 32.21875 -24.226562 33.15625 -22.632812 33.84375 -20.78125 C 34.53125 -18.925781 34.875 -16.921875 34.875 -14.765625 C 34.875 -12.578125 34.554688 -10.539062 33.921875 -8.65625 C 33.296875 -6.78125 32.425781 -5.15625 31.3125 -3.78125 C 30.195312 -2.414062 28.878906 -1.347656 27.359375 -0.578125 C 25.835938 0.179688 24.1875 0.5625 22.40625 0.5625 Z M 18.71875 -8.359375 C 19.5 -8.359375 20.210938 -8.523438 20.859375 -8.859375 C 21.515625 -9.191406 22.070312 -9.65625 22.53125 -10.25 C 23 -10.84375 23.375 -11.53125 23.65625 -12.3125 C 23.9375 -13.09375 24.078125 -13.929688 24.078125 -14.828125 C 24.078125 -16.679688 23.546875 -18.164062 22.484375 -19.28125 C 21.421875 -20.394531 20.019531 -20.953125 18.28125 -20.953125 C 16.3125 -20.953125 14.640625 -19.945312 13.265625 -17.9375 L 13.265625 -12.875 C 13.785156 -11.570312 14.546875 -10.492188 15.546875 -9.640625 C 16.546875 -8.785156 17.601562 -8.359375 18.71875 -8.359375 Z M 18.71875 -8.359375 "/></g></g></g></svg>