<svg xmlns="http://www.w3.org/2000/svg" xmlns:xlink="http://www.w3.org/1999/xlink" width="150" zoomAndPan="magnify" viewBox="0 0 112.5 103.5" height="138" preserveAspectRatio="xMidYMid meet" version="1.0"><defs><clipPath id="041bbb2478"><path d="M 42 56 L 111.980469 56 L 111.980469 103.003906 L 42 103.003906 Z M 42 56 " clip-rule="nonzero"/></clipPath><clipPath id="4acb1e601b"><path d="M 93 78 L 111.980469 78 L 111.980469 103 L 93 103 Z M 93 78 " clip-rule="nonzero"/></clipPath><clipPath id="966b4c7022"><path d="M 93 0 L 111.980469 0 L 111.980469 24 L 93 24 Z M 93 0 " clip-rule="nonzero"/></clipPath><clipPath id="c6a6c67786"><path d="M 0.0234375 8 L 36 8 L 36 15 L 0.0234375 15 Z M 0.0234375 8 " clip-rule="nonzero"/></clipPath><clipPath id="93aa19bdd9"><path d="M 0.0234375 87 L 36 87 L 36 94 L 0.0234375 94 Z M 0.0234375 87 " clip-rule="nonzero"/></clipPath><clipPath id="12aea4eaaf"><path d="M 0.0234375 0 L 111.980469 0 L 111.980469 103.003906 L 0.0234375 103.003906 Z M 0.0234375 0 " clip-rule="nonzero"/></clipPath></defs><g clip-path="url(#041bbb2478)"><path stroke-linecap="butt" transform="matrix(0.746227, 0.015804, -0.015804, 0.746227, 76.252799, 87.194538)" fill="none" stroke-linejoin="miter" d="M 0.00244865 4.000273 L 25.228307 3.999962 " stroke="#193479" stroke-width="8" stroke-opacity="1" stroke-miterlimit="4"/></g><path fill="#193479" d="M 96.699219 81.65625 L 108.449219 90.863281 L 96.316406 99.566406 Z M 96.699219 81.65625 " fill-opacity="1" fill-rule="nonzero"/><g clip-path="url(#4acb1e601b)"><path stroke-linecap="round" transform="matrix(0.746227, 0.015804, -0.015804, 0.746227, 76.252799, 87.194538)" fill="none" stroke-linejoin="round" d="M 27.230341 -7.99842 L 43.230349 4.000835 L 27.225651 16.002632 Z M 27.230341 -7.99842 " stroke="#193479" stroke-width="8" stroke-opacity="1" stroke-miterlimit="4"/></g><path stroke-linecap="butt" transform="matrix(0.746394, 0, 0, 0.746394, 76.189582, 8.956733)" fill="none" stroke-linejoin="miter" d="M 0.00244471 3.998789 L 25.217422 3.998789 " stroke="#193479" stroke-width="8" stroke-opacity="1" stroke-miterlimit="4"/><path fill="#193479" d="M 96.503906 2.984375 L 108.445312 11.941406 L 96.503906 20.898438 Z M 96.503906 2.984375 " fill-opacity="1" fill-rule="nonzero"/><g clip-path="url(#966b4c7022)"><path stroke-linecap="round" transform="matrix(0.746394, 0, 0, 0.746394, 76.189582, 8.956733)" fill="none" stroke-linejoin="round" d="M 27.216617 -8.001614 L 43.215409 3.998789 L 27.216617 15.999192 Z M 27.216617 -8.001614 " stroke="#193479" stroke-width="8" stroke-opacity="1" stroke-miterlimit="4"/></g><g clip-path="url(#c6a6c67786)"><path stroke-linecap="butt" transform="matrix(0.746394, -0.000000000000005831, 0.000000000000005831, 0.746394, 0.220982, 8.210339)" fill="none" stroke-linejoin="miter" d="M 0.00224359 3.999191 L 43.900796 3.999191 " stroke="#193479" stroke-width="8" stroke-opacity="1" stroke-miterlimit="4"/></g><g clip-path="url(#93aa19bdd9)"><path stroke-linecap="butt" transform="matrix(0.746394, -0.000000000000005831, 0.000000000000005831, 0.746394, 0.0216346, 87.940182)" fill="none" stroke-linejoin="miter" d="M 0.00241546 4.00003 L 43.900968 4.00003 " stroke="#193479" stroke-width="8" stroke-opacity="1" stroke-miterlimit="4"/></g><g clip-path="url(#12aea4eaaf)"><path stroke-linecap="butt" transform="matrix(0.36886, 0.648881, -0.648881, 0.36886, 34.132462, 8.605463)" fill="none" stroke-linejoin="miter" d="M 0.000137467 4.002822 L 125.7483 3.997739 " stroke="#193479" stroke-width="8" stroke-opacity="1" stroke-miterlimit="4"/><path stroke-linecap="butt" transform="matrix(0.375818, -0.644876, 0.644876, 0.375818, 28.441869, 90.164998)" fill="none" stroke-linejoin="miter" d="M -0.00089613 3.997664 L 124.794683 4.000698 " stroke="#193479" stroke-width="8" stroke-opacity="1" stroke-miterlimit="4"/></g></svg>