<svg width="32" height="32" viewBox="0 0 32 32" fill="none" xmlns="http://www.w3.org/2000/svg">
<path d="M7.99992 26.6671C7.26659 26.6671 6.63903 26.4062 6.11725 25.8844C5.59547 25.3626 5.33414 24.7346 5.33325 24.0004V21.3337C5.33325 20.956 5.46125 20.6395 5.71725 20.3844C5.97325 20.1293 6.2897 20.0013 6.66659 20.0004C7.04347 19.9995 7.36036 20.1275 7.61725 20.3844C7.87414 20.6413 8.0017 20.9577 7.99992 21.3337V24.0004H23.9999V21.3337C23.9999 20.956 24.1279 20.6395 24.3839 20.3844C24.6399 20.1293 24.9564 20.0013 25.3333 20.0004C25.7101 19.9995 26.027 20.1275 26.2839 20.3844C26.5408 20.6413 26.6684 20.9577 26.6666 21.3337V24.0004C26.6666 24.7337 26.4057 25.3617 25.8839 25.8844C25.3621 26.4071 24.7341 26.668 23.9999 26.6671H7.99992ZM14.6666 10.4671L12.1666 12.9671C11.8999 13.2337 11.5835 13.3617 11.2173 13.3511C10.851 13.3404 10.5341 13.2013 10.2666 12.9337C10.0221 12.6671 9.89414 12.356 9.88259 12.0004C9.87103 11.6449 9.99903 11.3337 10.2666 11.0671L15.0666 6.26708C15.1999 6.13374 15.3444 6.03952 15.4999 5.98441C15.6555 5.9293 15.8221 5.9013 15.9999 5.90041C16.1777 5.89952 16.3444 5.92752 16.4999 5.98441C16.6555 6.0413 16.7999 6.13552 16.9333 6.26708L21.7333 11.0671C21.9999 11.3337 22.1279 11.6449 22.1173 12.0004C22.1066 12.356 21.9786 12.6671 21.7333 12.9337C21.4666 13.2004 21.1501 13.3395 20.7839 13.3511C20.4177 13.3626 20.1008 13.2346 19.8333 12.9671L17.3333 10.4671V20.0004C17.3333 20.3782 17.2053 20.6951 16.9493 20.9511C16.6933 21.2071 16.3768 21.3346 15.9999 21.3337C15.623 21.3329 15.3066 21.2049 15.0506 20.9497C14.7946 20.6946 14.6666 20.3782 14.6666 20.0004V10.4671Z" fill="#001E6B"/>
</svg>
