<svg width="32" height="32" viewBox="0 0 32 32" fill="none" xmlns="http://www.w3.org/2000/svg">
<path d="M15.9999 5.33398C17.4144 5.33398 18.771 5.89589 19.7712 6.89608C20.7713 7.89628 21.3333 9.25283 21.3333 10.6673C21.3333 12.0818 20.7713 13.4384 19.7712 14.4386C18.771 15.4387 17.4144 16.0007 15.9999 16.0007C14.5854 16.0007 13.2289 15.4387 12.2287 14.4386C11.2285 13.4384 10.6666 12.0818 10.6666 10.6673C10.6666 9.25283 11.2285 7.89628 12.2287 6.89608C13.2289 5.89589 14.5854 5.33398 15.9999 5.33398ZM15.9999 18.6673C21.8933 18.6673 26.6666 21.054 26.6666 24.0007V26.6673H5.33325V24.0007C5.33325 21.054 10.1066 18.6673 15.9999 18.6673Z" fill="white"/>
</svg>
