<svg width="26" height="26" viewBox="0 0 26 26" fill="none" xmlns="http://www.w3.org/2000/svg">
<g clip-path="url(#clip0_991_615)">
<path d="M17.875 11.375C17.875 14.0725 15.6975 16.25 13 16.25C10.3025 16.25 8.125 14.0725 8.125 11.375C8.125 8.6775 10.3025 6.5 13 6.5C15.6975 6.5 17.875 8.6775 17.875 11.375Z" fill="#00236B"/>
<path fill-rule="evenodd" clip-rule="evenodd" d="M26 13C26 20.1825 20.1825 26 13 26C5.8175 26 0 20.1825 0 13C0 5.8175 5.8175 0 13 0C20.1825 0 26 5.8175 26 13ZM6.5 22.3438C6.76 21.9115 9.27875 17.875 12.9837 17.875C16.6725 17.875 19.2075 21.9212 19.4675 22.3438C20.9785 21.2989 22.2132 19.9026 23.0652 18.2749C23.9172 16.6473 24.3611 14.8371 24.3587 13C24.3587 6.71125 19.2725 1.625 12.9837 1.625C6.695 1.625 1.60875 6.71125 1.60875 13C1.60875 16.8675 3.5425 20.2962 6.5 22.3438Z" fill="#00236B"/>
</g>
<defs>
<clipPath id="clip0_991_615">
<rect width="26" height="26" fill="white"/>
</clipPath>
</defs>
</svg>
